<svg xmlns="http://www.w3.org/2000/svg" viewBox="0 0 48 54" fill="none">
  <!-- 扣子小幽灵Logo SVG矢量图 -->
  <defs>
    <linearGradient id="ghostGradient" x1="0%" y1="0%" x2="0%" y2="100%">
      <stop offset="0%" style="stop-color:#A78BFA"/>
      <stop offset="100%" style="stop-color:#7C3AED"/>
    </linearGradient>
  </defs>
  <!-- 幽灵身体 -->
  <path d="M24 0C10.745 0 0 10.745 0 24v24c0 3.314 2.686 6 6 6 1.657 0 3.157-.673 4.243-1.757C11.329 51.327 12.829 52 14.486 52c1.657 0 3.157-.673 4.243-1.757C19.815 51.327 21.315 52 22.972 52c1.657 0 3.157-.673 4.243-1.757C28.302 51.327 29.802 52 31.459 52c1.657 0 3.157-.673 4.243-1.757C36.789 51.327 38.289 52 39.946 52c3.314 0 6-2.686 6-6V24C45.946 10.745 35.201 0 24 0z" fill="url(#ghostGradient)"/>
  <!-- 左眼 -->
  <circle cx="16" cy="22" r="4" fill="white"/>
  <circle cx="16" cy="22" r="2" fill="#1E293B"/>
  <!-- 右眼 -->
  <circle cx="32" cy="22" r="4" fill="white"/>
  <circle cx="32" cy="22" r="2" fill="#1E293B"/>
  <!-- 嘴巴 -->
  <ellipse cx="24" cy="34" rx="4" ry="3" fill="white"/>
  <!-- 腮红 -->
  <ellipse cx="10" cy="28" rx="3" ry="2" fill="#FBBF24" opacity="0.6"/>
  <ellipse cx="38" cy="28" rx="3" ry="2" fill="#FBBF24" opacity="0.6"/>
</svg>